<svg xmlns="http://www.w3.org/2000/svg" viewBox="0 0 132.94 128.78"><defs><style>.cls-1{fill:#fff;}.cls-2{fill:#c4e0de;}.cls-3{fill:none;stroke:#231f20;stroke-miterlimit:10;stroke-width:3.7px;}</style></defs><title>Asset 34</title><g id="Layer_2" data-name="Layer 2"><g id="Layer_1-2" data-name="Layer 1"><path class="cls-1" d="M98.4,126.07a114.68,114.68,0,0,1-44.85-5.23C37.93,115.73,18.42,109.35,8.09,90-3.07,69.13,4.14,47.51,5.28,44.26,15.94,13.87,47.42,5.49,50,4.84"/><path class="cls-2" d="M120.47,18.37c20.94,24.82,15.61,68-16.67,89.48q3.75,7.55,7.49,15.1C61.53,129.06,21.61,102,15.57,69.66c-3.73-20,5.28-42.91,22.44-56.31C61.56-5,100.4-5.42,120.47,18.37Z"/><path class="cls-3" d="M107.59,21.49c20.93,24.82,15.6,68-16.67,89.48q3.73,7.55,7.48,15.1c-49.75,6.11-89.67-20.95-95.72-53.3C-1,52.8,8,29.87,25.13,16.47,48.67-1.91,87.51-2.3,107.59,21.49Z"/></g></g></svg>