<?xml version="1.0" encoding="UTF-8"?>
<svg width="33px" height="33px" viewBox="0 0 33 33" version="1.1" xmlns="http://www.w3.org/2000/svg" xmlns:xlink="http://www.w3.org/1999/xlink">
    <title>Group 7 Copy 6</title>
    <defs>
        <filter id="filter-1">
            <feColorMatrix in="SourceGraphic" type="matrix" values="0 0 0 0 1.000000 0 0 0 0 1.000000 0 0 0 0 1.000000 0 0 0 1.000000 0"></feColorMatrix>
        </filter>
    </defs>
    <g id="Finals" stroke="none" stroke-width="1" fill="none" fill-rule="evenodd">
        <g id="Serviços-Mobile" transform="translate(-191.000000, -8476.000000)">
            <g id="Group-7-Copy-6" transform="translate(27.000000, 8477.000000)" filter="url(#filter-1)">
                <g transform="translate(165.000000, 0.000000)">
                    <path d="M15.5,1 C7.5045,1 1,7.5045 1,15.5 C1,23.495 7.5045,30 15.5,30 C23.495,30 30,23.495 30,15.5 C30,7.5045 23.495,1 15.5,1 M15.5,31 C6.9535,31 0,24.047 0,15.5 C0,6.9535 6.9535,0 15.5,0 C24.047,0 31,6.9535 31,15.5 C31,24.047 24.047,31 15.5,31" id="Fill-1" stroke="#AA84BC" fill="#AA84BC"></path>
                    <path d="M16,21 C15.448,21 15,20.7765 15,20.5 L15,14.5 C15,14.224 15.448,14 16,14 C16.552,14 17,14.224 17,14.5 L17,20.5 C17,20.7765 16.552,21 16,21" id="Fill-3" fill="#AA84BC"></path>
                    <path d="M16.0074442,10 C15.4595533,10 15,9.552 15,9 C15,8.448 15.4297767,8 15.9776675,8 L16.0074442,8 C16.555335,8 17,8.448 17,9 C17,9.552 16.555335,10 16.0074442,10" id="Fill-5" fill="#AA84BC"></path>
                </g>
            </g>
        </g>
    </g>
</svg>